<?xml version="1.0" encoding="utf-8" standalone="no"?>
<!DOCTYPE svg PUBLIC "-//W3C//DTD SVG 1.1//EN"
  "http://www.w3.org/Graphics/SVG/1.1/DTD/svg11.dtd">
<svg xmlns:xlink="http://www.w3.org/1999/xlink" width="507.003187pt" height="321.169133pt" viewBox="0 0 507.003187 321.169133" xmlns="http://www.w3.org/2000/svg" version="1.1">
 <metadata>
  <rdf:RDF xmlns:dc="http://purl.org/dc/elements/1.1/" xmlns:cc="http://creativecommons.org/ns#" xmlns:rdf="http://www.w3.org/1999/02/22-rdf-syntax-ns#">
   <cc:Work>
    <dc:type rdf:resource="http://purl.org/dc/dcmitype/StillImage"/>
    <dc:date>2026-05-06T00:03:45.377094</dc:date>
    <dc:format>image/svg+xml</dc:format>
    <dc:creator>
     <cc:Agent>
      <dc:title>Matplotlib v3.10.8, https://matplotlib.org/</dc:title>
     </cc:Agent>
    </dc:creator>
   </cc:Work>
  </rdf:RDF>
 </metadata>
 <defs>
  <style type="text/css">*{stroke-linejoin: round; stroke-linecap: butt}</style>
 </defs>
 <g id="figure_1">
  <g id="patch_1">
   <path d="M 0 321.169133
L 507.003187 321.169133
L 507.003187 0
L 0 0
z
" style="fill: #ffffff"/>
  </g>
  <g id="axes_1">
   <g id="patch_2">
    <path d="M 43.377188 302.79882
L 504.843187 302.79882
L 504.843187 8.96682
L 43.377188 8.96682
z
" style="fill: #ffffff"/>
   </g>
   <g id="matplotlib.axis_1">
    <g id="xtick_1">
     <g id="line2d_1">
      <defs>
       <path id="m465c63d1d8" d="M 0 0
L 0 4
" style="stroke: #000000; stroke-width: 0.8"/>
      </defs>
      <g>
       <use xlink:href="#m465c63d1d8" x="75.202429" y="302.79882" style="stroke: #000000; stroke-width: 0.8"/>
      </g>
     </g>
     <g id="text_1">
      <text style="font-size: 9px; font-family: 'DejaVu Serif'; text-anchor: middle; fill: #1b9e77" x="75.202429" y="317.137414" transform="rotate(-0 75.202429 317.137414)">Alpha</text>
     </g>
    </g>
    <g id="xtick_2">
     <g id="line2d_2">
      <g>
       <use xlink:href="#m465c63d1d8" x="207.807601" y="302.79882" style="stroke: #000000; stroke-width: 0.8"/>
      </g>
     </g>
     <g id="text_2">
      <text style="font-size: 9px; font-family: 'DejaVu Serif'; text-anchor: middle; fill: #d95f02" x="207.807601" y="317.137414" transform="rotate(-0 207.807601 317.137414)">Gamma</text>
     </g>
    </g>
    <g id="xtick_3">
     <g id="line2d_3">
      <g>
       <use xlink:href="#m465c63d1d8" x="340.412774" y="302.79882" style="stroke: #000000; stroke-width: 0.8"/>
      </g>
     </g>
     <g id="text_3">
      <text style="font-size: 9px; font-family: 'DejaVu Serif'; text-anchor: middle; fill: #4c78a8" x="340.412774" y="317.137414" transform="rotate(-0 340.412774 317.137414)">Beta</text>
     </g>
    </g>
    <g id="xtick_4">
     <g id="line2d_4">
      <g>
       <use xlink:href="#m465c63d1d8" x="473.017946" y="302.79882" style="stroke: #000000; stroke-width: 0.8"/>
      </g>
     </g>
     <g id="text_4">
      <text style="font-size: 9px; font-family: 'DejaVu Serif'; text-anchor: middle; fill: #7f7f7f" x="473.017946" y="317.137414" transform="rotate(-0 473.017946 317.137414)">sup</text>
     </g>
    </g>
   </g>
   <g id="matplotlib.axis_2">
    <g id="ytick_1">
     <g id="line2d_5">
      <path d="M 43.377188 302.79882
L 504.843187 302.79882
" clip-path="url(#pa447b512a9)" style="fill: none; stroke: #e4e4e4; stroke-opacity: 0.7; stroke-width: 0.8; stroke-linecap: square"/>
     </g>
     <g id="line2d_6">
      <defs>
       <path id="m90ece1cc7b" d="M 0 0
L -4 0
" style="stroke: #000000; stroke-width: 0.8"/>
      </defs>
      <g>
       <use xlink:href="#m90ece1cc7b" x="43.377188" y="302.79882" style="stroke: #000000; stroke-width: 0.8"/>
      </g>
     </g>
     <g id="text_5">
      <text style="font-size: 9px; font-family: 'DejaVu Serif'; text-anchor: end" x="35.877188" y="306.218117" transform="rotate(-0 35.877188 306.218117)">0.00</text>
     </g>
    </g>
    <g id="ytick_2">
     <g id="line2d_7">
      <path d="M 43.377188 230.427929
L 504.843187 230.427929
" clip-path="url(#pa447b512a9)" style="fill: none; stroke: #e4e4e4; stroke-opacity: 0.7; stroke-width: 0.8; stroke-linecap: square"/>
     </g>
     <g id="line2d_8">
      <g>
       <use xlink:href="#m90ece1cc7b" x="43.377188" y="230.427929" style="stroke: #000000; stroke-width: 0.8"/>
      </g>
     </g>
     <g id="text_6">
      <text style="font-size: 9px; font-family: 'DejaVu Serif'; text-anchor: end" x="35.877188" y="233.847226" transform="rotate(-0 35.877188 233.847226)">0.15</text>
     </g>
    </g>
    <g id="ytick_3">
     <g id="line2d_9">
      <path d="M 43.377188 158.057037
L 504.843187 158.057037
" clip-path="url(#pa447b512a9)" style="fill: none; stroke: #e4e4e4; stroke-opacity: 0.7; stroke-width: 0.8; stroke-linecap: square"/>
     </g>
     <g id="line2d_10">
      <g>
       <use xlink:href="#m90ece1cc7b" x="43.377188" y="158.057037" style="stroke: #000000; stroke-width: 0.8"/>
      </g>
     </g>
     <g id="text_7">
      <text style="font-size: 9px; font-family: 'DejaVu Serif'; text-anchor: end" x="35.877188" y="161.476334" transform="rotate(-0 35.877188 161.476334)">0.30</text>
     </g>
    </g>
    <g id="ytick_4">
     <g id="line2d_11">
      <path d="M 43.377188 85.686146
L 504.843187 85.686146
" clip-path="url(#pa447b512a9)" style="fill: none; stroke: #e4e4e4; stroke-opacity: 0.7; stroke-width: 0.8; stroke-linecap: square"/>
     </g>
     <g id="line2d_12">
      <g>
       <use xlink:href="#m90ece1cc7b" x="43.377188" y="85.686146" style="stroke: #000000; stroke-width: 0.8"/>
      </g>
     </g>
     <g id="text_8">
      <text style="font-size: 9px; font-family: 'DejaVu Serif'; text-anchor: end" x="35.877188" y="89.105443" transform="rotate(-0 35.877188 89.105443)">0.45</text>
     </g>
    </g>
    <g id="ytick_5">
     <g id="line2d_13">
      <path d="M 43.377188 13.315255
L 504.843187 13.315255
" clip-path="url(#pa447b512a9)" style="fill: none; stroke: #e4e4e4; stroke-opacity: 0.7; stroke-width: 0.8; stroke-linecap: square"/>
     </g>
     <g id="line2d_14">
      <g>
       <use xlink:href="#m90ece1cc7b" x="43.377188" y="13.315255" style="stroke: #000000; stroke-width: 0.8"/>
      </g>
     </g>
     <g id="text_9">
      <text style="font-size: 9px; font-family: 'DejaVu Serif'; text-anchor: end" x="35.877188" y="16.734552" transform="rotate(-0 35.877188 16.734552)">0.60</text>
     </g>
    </g>
    <g id="text_10">
     <text style="font-size: 10px; font-family: 'DejaVu Serif'; text-anchor: middle" x="9.758438" y="155.88282" transform="rotate(-90 9.758438 155.88282)">Composite concordance score</text>
    </g>
   </g>
   <g id="LineCollection_1">
    <path d="M 75.202429 302.79882
L 75.202429 41.31112
" clip-path="url(#pa447b512a9)" style="fill: none; stroke: #1b9e77; stroke-opacity: 0.68; stroke-width: 2"/>
   </g>
   <g id="LineCollection_2">
    <path d="M 207.807601 302.79882
L 207.807601 80.684877
" clip-path="url(#pa447b512a9)" style="fill: none; stroke: #d95f02; stroke-opacity: 0.68; stroke-width: 2"/>
   </g>
   <g id="LineCollection_3">
    <path d="M 340.412774 302.79882
L 340.412774 87.051681
" clip-path="url(#pa447b512a9)" style="fill: none; stroke: #4c78a8; stroke-opacity: 0.68; stroke-width: 2"/>
   </g>
   <g id="LineCollection_4">
    <path d="M 473.017946 302.79882
L 473.017946 185.707692
" clip-path="url(#pa447b512a9)" style="fill: none; stroke: #7f7f7f; stroke-opacity: 0.68; stroke-width: 2"/>
   </g>
   <g id="patch_3">
    <path d="M 43.377188 302.79882
L 43.377188 8.96682
" style="fill: none; stroke: #222222; stroke-width: 0.8; stroke-linejoin: miter; stroke-linecap: square"/>
   </g>
   <g id="patch_4">
    <path d="M 43.377188 302.79882
L 504.843187 302.79882
" style="fill: none; stroke: #222222; stroke-width: 0.8; stroke-linejoin: miter; stroke-linecap: square"/>
   </g>
   <g id="PathCollection_1">
    <defs>
     <path id="m708f8bfcdd" d="M 0 4.795832
C 1.271869 4.795832 2.491818 4.290512 3.391165 3.391165
C 4.290512 2.491818 4.795832 1.271869 4.795832 0
C 4.795832 -1.271869 4.290512 -2.491818 3.391165 -3.391165
C 2.491818 -4.290512 1.271869 -4.795832 0 -4.795832
C -1.271869 -4.795832 -2.491818 -4.290512 -3.391165 -3.391165
C -4.290512 -2.491818 -4.795832 -1.271869 -4.795832 0
C -4.795832 1.271869 -4.290512 2.491818 -3.391165 3.391165
C -2.491818 4.290512 -1.271869 4.795832 0 4.795832
z
" style="stroke: #ffffff; stroke-width: 0.9"/>
    </defs>
    <g clip-path="url(#pa447b512a9)">
     <use xlink:href="#m708f8bfcdd" x="75.202429" y="41.31112" style="fill: #1b9e77; stroke: #ffffff; stroke-width: 0.9"/>
    </g>
   </g>
   <g id="PathCollection_2">
    <defs>
     <path id="m4ee0d51488" d="M 0 4.795832
C 1.271869 4.795832 2.491818 4.290512 3.391165 3.391165
C 4.290512 2.491818 4.795832 1.271869 4.795832 0
C 4.795832 -1.271869 4.290512 -2.491818 3.391165 -3.391165
C 2.491818 -4.290512 1.271869 -4.795832 0 -4.795832
C -1.271869 -4.795832 -2.491818 -4.290512 -3.391165 -3.391165
C -4.290512 -2.491818 -4.795832 -1.271869 -4.795832 0
C -4.795832 1.271869 -4.290512 2.491818 -3.391165 3.391165
C -2.491818 4.290512 -1.271869 4.795832 0 4.795832
z
" style="stroke: #ffffff; stroke-width: 0.9"/>
    </defs>
    <g clip-path="url(#pa447b512a9)">
     <use xlink:href="#m4ee0d51488" x="207.807601" y="80.684877" style="fill: #d95f02; stroke: #ffffff; stroke-width: 0.9"/>
    </g>
   </g>
   <g id="PathCollection_3">
    <defs>
     <path id="me3105bee7b" d="M 0 4.795832
C 1.271869 4.795832 2.491818 4.290512 3.391165 3.391165
C 4.290512 2.491818 4.795832 1.271869 4.795832 0
C 4.795832 -1.271869 4.290512 -2.491818 3.391165 -3.391165
C 2.491818 -4.290512 1.271869 -4.795832 0 -4.795832
C -1.271869 -4.795832 -2.491818 -4.290512 -3.391165 -3.391165
C -4.290512 -2.491818 -4.795832 -1.271869 -4.795832 0
C -4.795832 1.271869 -4.290512 2.491818 -3.391165 3.391165
C -2.491818 4.290512 -1.271869 4.795832 0 4.795832
z
" style="stroke: #ffffff; stroke-width: 0.9"/>
    </defs>
    <g clip-path="url(#pa447b512a9)">
     <use xlink:href="#me3105bee7b" x="340.412774" y="87.051681" style="fill: #4c78a8; stroke: #ffffff; stroke-width: 0.9"/>
    </g>
   </g>
   <g id="PathCollection_4">
    <defs>
     <path id="m039ab47b42" d="M -2.397916 4.795832
L 0 2.397916
L 2.397916 4.795832
L 4.795832 2.397916
L 2.397916 0
L 4.795832 -2.397916
L 2.397916 -4.795832
L 0 -2.397916
L -2.397916 -4.795832
L -4.795832 -2.397916
L -2.397916 0
L -4.795832 2.397916
z
" style="stroke: #ffffff; stroke-width: 0.9"/>
    </defs>
    <g clip-path="url(#pa447b512a9)">
     <use xlink:href="#m039ab47b42" x="473.017946" y="185.707692" style="fill: #7f7f7f; stroke: #ffffff; stroke-width: 0.9"/>
    </g>
   </g>
   <g id="LineCollection_5">
    <path d="M 75.202429 41.784114
L 75.202429 40.838125
" clip-path="url(#pa447b512a9)" style="fill: none; stroke: #222222; stroke-width: 1.45"/>
   </g>
   <g id="line2d_15">
    <defs>
     <path id="m3ce80b4904" d="M 5 0
L -5 -0
" style="stroke: #222222; stroke-width: 1.35"/>
    </defs>
    <g clip-path="url(#pa447b512a9)">
     <use xlink:href="#m3ce80b4904" x="75.202429" y="41.784114" style="fill: #1f77b4; stroke: #222222; stroke-width: 1.35"/>
    </g>
   </g>
   <g id="line2d_16">
    <g clip-path="url(#pa447b512a9)">
     <use xlink:href="#m3ce80b4904" x="75.202429" y="40.838125" style="fill: #1f77b4; stroke: #222222; stroke-width: 1.35"/>
    </g>
   </g>
   <g id="LineCollection_6">
    <path d="M 207.807601 81.157154
L 207.807601 80.2126
" clip-path="url(#pa447b512a9)" style="fill: none; stroke: #222222; stroke-width: 1.45"/>
   </g>
   <g id="line2d_17">
    <g clip-path="url(#pa447b512a9)">
     <use xlink:href="#m3ce80b4904" x="207.807601" y="81.157154" style="fill: #1f77b4; stroke: #222222; stroke-width: 1.35"/>
    </g>
   </g>
   <g id="line2d_18">
    <g clip-path="url(#pa447b512a9)">
     <use xlink:href="#m3ce80b4904" x="207.807601" y="80.2126" style="fill: #1f77b4; stroke: #222222; stroke-width: 1.35"/>
    </g>
   </g>
   <g id="LineCollection_7">
    <path d="M 340.412774 87.627796
L 340.412774 86.475566
" clip-path="url(#pa447b512a9)" style="fill: none; stroke: #222222; stroke-width: 1.45"/>
   </g>
   <g id="line2d_19">
    <g clip-path="url(#pa447b512a9)">
     <use xlink:href="#m3ce80b4904" x="340.412774" y="87.627796" style="fill: #1f77b4; stroke: #222222; stroke-width: 1.35"/>
    </g>
   </g>
   <g id="line2d_20">
    <g clip-path="url(#pa447b512a9)">
     <use xlink:href="#m3ce80b4904" x="340.412774" y="86.475566" style="fill: #1f77b4; stroke: #222222; stroke-width: 1.35"/>
    </g>
   </g>
   <g id="LineCollection_8">
    <path d="M 473.017946 185.707692
L 473.017946 185.707692
" clip-path="url(#pa447b512a9)" style="fill: none; stroke: #222222; stroke-width: 1.45"/>
   </g>
   <g id="line2d_21">
    <g clip-path="url(#pa447b512a9)">
     <use xlink:href="#m3ce80b4904" x="473.017946" y="185.707692" style="fill: #1f77b4; stroke: #222222; stroke-width: 1.35"/>
    </g>
   </g>
   <g id="line2d_22">
    <g clip-path="url(#pa447b512a9)">
     <use xlink:href="#m3ce80b4904" x="473.017946" y="185.707692" style="fill: #1f77b4; stroke: #222222; stroke-width: 1.35"/>
    </g>
   </g>
   <g id="text_11">
    <g id="patch_5">
     <path d="M 60.02282 33.678125
L 90.382038 33.678125
Q 91.222038 33.678125 91.222038 32.838125
L 91.222038 19.820641
Q 91.222038 18.980641 90.382038 18.980641
L 60.02282 18.980641
Q 59.18282 18.980641 59.18282 19.820641
L 59.18282 32.838125
Q 59.18282 33.678125 60.02282 33.678125
z
" style="fill: #ffffff; opacity: 0.78"/>
    </g>
    <text style="font-size: 7px; font-family: 'DejaVu Serif'; fill: #222222" transform="translate(62.95571 25.139547)">0.5420</text>
    <text style="font-size: 7px; font-family: 'DejaVu Serif'; fill: #222222" transform="translate(60.02282 31.382344)">±0.0010</text>
   </g>
   <g id="text_12">
    <g id="patch_6">
     <path d="M 192.627992 73.0526
L 222.987211 73.0526
Q 223.827211 73.0526 223.827211 72.2126
L 223.827211 59.195116
Q 223.827211 58.355116 222.987211 58.355116
L 192.627992 58.355116
Q 191.787992 58.355116 191.787992 59.195116
L 191.787992 72.2126
Q 191.787992 73.0526 192.627992 73.0526
z
" style="fill: #ffffff; opacity: 0.78"/>
    </g>
    <text style="font-size: 7px; font-family: 'DejaVu Serif'; fill: #222222" transform="translate(195.560883 64.514022)">0.4604</text>
    <text style="font-size: 7px; font-family: 'DejaVu Serif'; fill: #222222" transform="translate(192.627992 70.756819)">±0.0010</text>
   </g>
   <g id="text_13">
    <g id="patch_7">
     <path d="M 325.233164 79.315566
L 355.592383 79.315566
Q 356.432383 79.315566 356.432383 78.475566
L 356.432383 65.458082
Q 356.432383 64.618082 355.592383 64.618082
L 325.233164 64.618082
Q 324.393164 64.618082 324.393164 65.458082
L 324.393164 78.475566
Q 324.393164 79.315566 325.233164 79.315566
z
" style="fill: #ffffff; opacity: 0.78"/>
    </g>
    <text style="font-size: 7px; font-family: 'DejaVu Serif'; fill: #222222" transform="translate(328.166055 70.776988)">0.4472</text>
    <text style="font-size: 7px; font-family: 'DejaVu Serif'; fill: #222222" transform="translate(325.233164 77.019785)">±0.0012</text>
   </g>
   <g id="text_14">
    <g id="patch_8">
     <path d="M 457.838337 178.547692
L 488.197555 178.547692
Q 489.037555 178.547692 489.037555 177.707692
L 489.037555 164.690207
Q 489.037555 163.850207 488.197555 163.850207
L 457.838337 163.850207
Q 456.998337 163.850207 456.998337 164.690207
L 456.998337 177.707692
Q 456.998337 178.547692 457.838337 178.547692
z
" style="fill: #ffffff; opacity: 0.78"/>
    </g>
    <text style="font-size: 7px; font-family: 'DejaVu Serif'; fill: #222222" transform="translate(460.771227 170.009114)">0.2427</text>
    <text style="font-size: 7px; font-family: 'DejaVu Serif'; fill: #222222" transform="translate(457.838337 176.251911)">±0.0000</text>
   </g>
   <g id="text_15">
    <text style="font-weight: 700; font-size: 10px; font-family: 'DejaVu Serif'; text-anchor: middle; fill: #333333" x="75.202429" y="9.758438" transform="rotate(-0 75.202429 9.758438)">#1</text>
   </g>
   <g id="text_16">
    <text style="font-weight: 700; font-size: 10px; font-family: 'DejaVu Serif'; text-anchor: middle; fill: #333333" x="207.807601" y="49.132913" transform="rotate(-0 207.807601 49.132913)">#4</text>
   </g>
   <g id="text_17">
    <text style="font-weight: 700; font-size: 10px; font-family: 'DejaVu Serif'; text-anchor: middle; fill: #333333" x="340.412774" y="55.395878" transform="rotate(-0 340.412774 55.395878)">#7</text>
   </g>
   <g id="text_18">
    <text style="font-weight: 700; font-size: 10px; font-family: 'DejaVu Serif'; text-anchor: middle; fill: #333333" x="473.017946" y="154.628004" transform="rotate(-0 473.017946 154.628004)">#10</text>
   </g>
  </g>
 </g>
 <defs>
  <clipPath id="pa447b512a9">
   <rect x="43.377188" y="8.96682" width="461.466" height="293.832"/>
  </clipPath>
 </defs>
</svg>
